<?xml version="1.0" standalone="no"?>
<!DOCTYPE svg PUBLIC "-//W3C//DTD SVG 20010904//EN"
 "http://www.w3.org/TR/2001/REC-SVG-20010904/DTD/svg10.dtd">
<svg version="1.0" xmlns="http://www.w3.org/2000/svg"
 width="133.000000pt" height="133.000000pt" viewBox="0 0 133.000000 133.000000"
 preserveAspectRatio="xMidYMid meet">
<metadata>
Created by potrace 1.11, written by Peter Selinger 2001-2013
</metadata>
<g transform="translate(0.000000,133.000000) scale(0.100000,-0.100000)"
fill="#000000" stroke="none">
<path d="M1185 1250 c-148 -49 -263 -120 -378 -233 l-48 -48 -62 47 c-34 26
-98 64 -142 85 -76 36 -81 37 -115 23 -72 -30 -157 -88 -215 -149 -112 -116
-162 -227 -190 -418 -3 -21 -13 -49 -22 -64 -16 -24 -16 -26 3 -42 11 -9 18
-24 16 -34 -3 -15 2 -18 30 -15 20 2 32 8 30 16 -2 13 5 12 93 -10 72 -18 193
-88 260 -150 30 -28 59 -35 82 -20 7 4 24 51 38 104 32 126 59 205 102 298 37
82 104 200 114 200 10 0 56 -110 71 -170 14 -56 17 -208 4 -246 -5 -18 -2 -23
20 -28 32 -8 34 -7 41 36 23 130 -6 297 -72 415 l-25 46 22 26 c59 67 136 132
213 177 70 42 186 88 237 93 12 2 38 32 38 46 0 17 -27 45 -43 45 -7 -1 -52
-14 -102 -30z m-657 -202 c56 -26 126 -71 164 -106 l26 -24 -45 -70 c-58 -90
-133 -248 -174 -368 -18 -52 -34 -97 -35 -99 -1 -1 -18 8 -36 22 -72 54 -190
101 -282 112 l-56 7 6 37 c20 144 84 290 164 371 52 52 185 140 213 140 4 0
29 -10 55 -22z"/>
<path d="M91 349 c-16 -10 -31 -21 -34 -26 -7 -11 59 -82 123 -135 51 -41 159
-97 238 -123 51 -16 55 -16 120 4 37 11 96 37 131 58 62 37 211 171 211 190 0
5 -13 18 -28 30 l-28 20 -64 -60 c-77 -70 -128 -107 -192 -136 -92 -41 -94
-42 -143 -21 -83 36 -187 103 -247 160 l-59 56 -28 -17z"/>
</g>
</svg>
